<svg width="18" height="18" viewBox="0 0 18 18" fill="none" xmlns="http://www.w3.org/2000/svg">
<path d="M6.08203 14.2422C6.08203 14.1719 6.01172 14.1016 5.90625 14.1016C5.80078 14.1016 5.73047 14.1719 5.73047 14.2422C5.73047 14.3125 5.80078 14.3828 5.90625 14.3477C6.01172 14.3477 6.08203 14.3125 6.08203 14.2422ZM4.99219 14.0664C4.99219 14.1367 5.0625 14.2422 5.16797 14.2422C5.23828 14.2773 5.34375 14.2422 5.37891 14.1719C5.37891 14.1016 5.34375 14.0312 5.23828 13.9961C5.13281 13.9609 5.02734 13.9961 4.99219 14.0664ZM6.57422 14.0312C6.46875 14.0312 6.39844 14.1016 6.39844 14.207C6.39844 14.2773 6.50391 14.3125 6.60938 14.2773C6.71484 14.2422 6.78516 14.207 6.75 14.1367C6.75 14.0664 6.64453 13.9961 6.57422 14.0312ZM8.85938 0.53125C4.00781 0.53125 0.28125 4.25781 0.28125 9.10938C0.28125 13.0117 2.70703 16.3516 6.22266 17.5469C6.67969 17.6172 6.82031 17.3359 6.82031 17.125C6.82031 16.8789 6.82031 15.6836 6.82031 14.9453C6.82031 14.9453 4.35938 15.4727 3.83203 13.8906C3.83203 13.8906 3.44531 12.8711 2.88281 12.625C2.88281 12.625 2.07422 12.0625 2.91797 12.0625C2.91797 12.0625 3.79688 12.1328 4.28906 12.9766C5.0625 14.3477 6.32812 13.9609 6.85547 13.7148C6.92578 13.1523 7.13672 12.7656 7.41797 12.5195C5.44922 12.3086 3.44531 12.0273 3.44531 8.65234C3.44531 7.66797 3.72656 7.21094 4.28906 6.57812C4.18359 6.33203 3.90234 5.41797 4.39453 4.1875C5.09766 3.97656 6.82031 5.13672 6.82031 5.13672C7.52344 4.92578 8.26172 4.85547 9 4.85547C9.77344 4.85547 10.5117 4.92578 11.2148 5.13672C11.2148 5.13672 12.9023 3.94141 13.6406 4.1875C14.1328 5.41797 13.8164 6.33203 13.7461 6.57812C14.3086 7.21094 14.6602 7.66797 14.6602 8.65234C14.6602 12.0273 12.5859 12.3086 10.6172 12.5195C10.9336 12.8008 11.2148 13.3281 11.2148 14.1719C11.2148 15.332 11.1797 16.8086 11.1797 17.0898C11.1797 17.3359 11.3555 17.6172 11.8125 17.5117C15.3281 16.3516 17.7188 13.0117 17.7188 9.10938C17.7188 4.25781 13.7461 0.53125 8.85938 0.53125ZM3.69141 12.6602C3.62109 12.6953 3.65625 12.8008 3.69141 12.8711C3.76172 12.9062 3.83203 12.9414 3.90234 12.9062C3.9375 12.8711 3.9375 12.7656 3.86719 12.6953C3.79688 12.6602 3.72656 12.625 3.69141 12.6602ZM3.30469 12.3789C3.26953 12.4492 3.30469 12.4844 3.375 12.5195C3.44531 12.5547 3.51562 12.5547 3.55078 12.4844C3.55078 12.4492 3.51562 12.4141 3.44531 12.3789C3.375 12.3438 3.33984 12.3438 3.30469 12.3789ZM4.42969 13.6445C4.39453 13.6797 4.39453 13.7852 4.5 13.8555C4.57031 13.9258 4.67578 13.9609 4.71094 13.8906C4.74609 13.8555 4.74609 13.75 4.67578 13.6797C4.60547 13.6094 4.5 13.5742 4.42969 13.6445ZM4.04297 13.1172C3.97266 13.1523 3.97266 13.2578 4.04297 13.3281C4.11328 13.3984 4.18359 13.4336 4.25391 13.3984C4.28906 13.3633 4.28906 13.2578 4.25391 13.1875C4.18359 13.1172 4.11328 13.082 4.04297 13.1172Z" fill="white"/>
</svg>
